<svg width="394" height="556" viewBox="0 0 394 556" fill="none" xmlns="http://www.w3.org/2000/svg">
<path d="M177.667 1.53357C154.467 8.0669 137.267 27.5335 131.4 53.6669C129.267 63.4002 129.267 75.0002 131.533 88.2002C132.2 91.9335 131.667 92.6002 123.267 98.2002C109.933 107 95.2666 119 93.4 122.467C90.4666 127.934 89.5333 134.6 88.3333 159.4C86.9999 185.267 88.3333 243.934 90.8666 272.2C92.2 286.333 92.8666 289.267 97.1333 297.8L101.933 307.4L101 335.8C100.6 351.4 99.8 368.867 99.2666 374.467L98.4666 384.867H76.8667L0.59996 384.067V425.4C0.59996 464.867 0.733294 466.734 3.13329 468.067C6.19996 469.667 12.6 469.8 12.6 468.334C12.6 467.134 18.0666 467.267 20.2 468.467C21 469 23.2666 468.867 25.1333 468.067C27.6666 467.134 28.6 467.267 28.6 468.467C28.6 469.534 29 469.534 29.8 468.2C30.7333 466.734 31 466.734 31.5333 468.2C32.0666 469.8 32.4666 469.8 34.3333 468.2C36.2 466.734 37 466.734 38.6 468.067C39.6666 469 40.6 469.267 40.6 468.734C40.6 468.2 41.6666 468.6 42.8666 469.534C44.0666 470.6 44.7333 470.734 44.2 469.934C43.6666 469 44.8666 468.467 47.5333 468.334C50.7333 468.2 51.2666 468.6 49.9333 469.4C48.4666 470.334 48.4666 470.734 49.6666 470.734C50.6 470.734 6.06669 470.6 6.46669 469.534C7.00002 468.467 7.80002 467.934 8.46669 468.334C9.13335 468.734 9.26669 469.8 8.73335 470.6C8.33335 471.534 9.26669 471 11 469.534C12.7334 468.067 13.6667 467.667 13.1334 468.467C12.0667 470.467 16.6 470.734 21 469C22.4667 468.334 24.3334 468.467 25.2667 469.134C26.4667 470.067 27 470.067 27 468.867C27 467.8 28.0667 467.534 30.0667 468.067C35.4 469.667 41.8 470.067 41 468.867C40.4667 468.067 41.6667 468.067 43.8 468.867C46.0667 469.8 48.8667 469.8 51.8 469C54.6 468.2 56.6 468.2 57.1334 469C57.9334 470.334 62.0667 469.934 65.9334 468.334C67.1334 467.8 69.4 468.067 71 468.867C73 469.934 73.6667 469.934 73.1334 469C72.6 468.2 73 467.534 74.2 467.534C77.4 467.534 80.3334 469 79.5334 470.334C79.1334 471 79.5334 471.534 80.2 471.534C81.5334 471.534 82.2 469.667 81.8 467.134C81.6667 466.6 83.4 467 85.5334 468.2C87.8 469.267 89.8 469.667 90.3334 469C90.7334 468.2 92.2 467.8 93.6667 467.934C95.5334 468.067 95.8 468.6 94.8667 469.667C93.8 470.867 94.2 471.134 96.2 470.6C97.8 470.2 98.7334 469.534 98.4667 469C98.0667 468.467 44.8665 467.4 46.7332 467.534C48.4665 467.534 4.8666 469.134 5.39993 470.067C6.19993 471.267 6.8666 471.134 8.19994 469.534C9.93327 467.4 14.1999 466.734 12.8666 468.734C12.4666 469.534 13.3999 469.934 14.8666 469.8C16.3333 469.667 17.5333 469.134 17.5333 468.6C17.5333 468.067 18.1999 467.534 18.8666 467.534C19.6666 467.534 20.1999 468.334 20.1999 469.4C20.1999 471.134 20.7333 471.134 23.7999 469.534C26.9999 467.8 27.7999 467.934 30.4666 469.667C33.2666 471.4 33.5333 471.4 33.5333 469.534C33.5333 467.534 33.7999 467.534 35.7999 469.534C37.7999 471.534 38.0666 471.534 39.1333 469.667C39.7999 468.467 40.9999 467.534 41.6666 467.534C42.4666 467.534 42.7333 467.934 42.4666 468.6C42.0666 469.134 43.1333 469.534 44.5999 469.667C46.1999 469.667 48.5999 470.2 49.9333 470.734C51.3999 471.4 52.1999 471.267 52.1999 470.2C52.1999 469.4 51.3999 469.134 50.5999 469.667C49.6666 470.2 49.2666 470.2 49.7999 469.534C50.3333 469 53.5333 468.467 56.8666 468.334C61.3999 468.2 62.8666 468.734 62.8666 470.2C62.8666 471.8 63.1333 471.934 64.0666 470.334C64.7333 469.267 66.6 468.734 68.7333 469.134C71.2666 469.667 72.1999 469.267 72.1999 467.8C72.1999 466.067 72.5999 466.2 74.1999 468.334C75.2666 469.667 76.1999 470.2 76.1999 469.534C76.1999 467.8 82.8666 467.4 85.7999 469C87.1333 469.667 88.1999 469.8 88.1999 469.267C88.1999 468.734 89.6666 468.067 91.2666 468.067C94.2 467.8 94.4666 468.6 95.9333 479C97.7999 493.534 100.867 499 110.733 506.2C134.333 523.533 184.333 549.667 203.133 554.6C211.4 556.733 217.4 555.4 225 549.533C227.4 547.667 229.8 546.2 230.467 546.2C231 546.2 230.333 547.133 229 548.2C226.333 550.2 226.333 550.2 229 550.2C230.333 550.2 242.6 547.4 256.2 544.067C338.333 523.8 259.767 539.267 317.367 515.133C327.233 511 336.3 507.4 337.367 507.4C338.433 507.267 339.767 506.6 340.3 505.933C341.633 504.067 346.7 503.534 346.7 505.267C346.7 506.334 347.233 506.333 348.433 505.4C350.433 503.8 356.167 503.8 355.233 505.4C354.833 505.933 355.767 506.467 357.233 506.467C358.833 506.467 360.033 505.934 360.033 505.267C360.033 504.734 361.633 504.333 363.633 504.6C365.633 504.733 368.167 504.2 369.233 503.4C370.3 502.467 370.833 502.467 370.433 503.133C369.233 505 375.367 507.667 377.633 506.333C378.967 505.4 378.967 505.133 377.767 505.133C376.833 505.133 376.033 504.467 376.033 503.667C376.033 502.6 376.567 502.467 377.767 503.667C378.833 504.467 380.033 504.733 380.567 504.2C381.1 503.667 381.1 504.334 380.567 505.8C379.633 508.067 379.767 508.2 381.633 506.733C383.367 505.4 384.567 505.267 386.567 506.333C388.167 507.267 389.5 507.267 389.9 506.6C390.433 505.933 389.9 505 389.1 504.733C388.167 504.333 388.7 503.933 390.433 503.933L393.367 503.8V462.467V421.133L373.833 407.028L279.267 384.867L278.333 380.734C277.933 378.467 277.533 364.733 277.533 350.2V323.934L286.733 316.2C296.733 307.934 298.2 305.533 300.333 294.2C302.467 282.6 303.4 195.267 301.667 173.667C299.267 145 298.6 142.867 289.667 134.2C283.8 128.6 263.8 115.4 245.8 105.4C245.667 105.267 247 100.6 248.867 95.0002C258.467 66.3335 252.2 37.9335 231.667 17.4002C224.2 10.0669 220.333 7.26692 213.133 4.46692C201.667 -0.199748 187.667 -1.26643 177.667 1.53357ZM208.2 19.8002C239.133 34.2002 247 81.9335 222.733 108.2C198.333 134.6 159.4 123.934 148.067 87.5335C139 58.7335 152.733 26.8669 177.933 17.9335C187.4 14.6002 198.6 15.2668 208.2 19.8002ZM142.733 113.267C156.467 133.267 181.4 143.4 204.067 138.067C212.733 136.067 223 130.6 230.467 124.067L237.133 118.334L253.133 127.934C261.933 133.267 270.467 138.6 272.333 139.934C275.267 142.067 275.4 142.467 273.267 143.667C263.267 149.4 229.8 179.667 222.733 189.4C219 194.467 218.867 195 218.867 212.067C218.867 221.667 219.8 241 220.867 254.867C225 304.334 225.667 339.934 222.6 343C222.2 343.4 219.267 342.334 216.2 340.734C207.133 336.067 207 336.734 207.8 373.934C208.333 395.667 207.8 419.134 206.2 448.867C205 472.734 204.067 502.6 204.333 515.133C204.867 537.667 204.867 538.2 202.2 537.4C197.667 536.067 157.533 516.467 156.333 515C155.8 514.2 156.333 493.134 157.667 468.2C158.867 443.267 160.6 404.067 161.533 381.267C163.267 337.4 163.133 335.534 157.667 335.534C153 335.534 152.2 338.334 152.2 355.667C152.2 372.867 147.533 481.534 146.067 499.133C145.267 508.6 145.267 508.733 142.467 507.267C134.333 503 117 490.6 115.133 487.667C113.133 484.733 112.867 479.667 112.867 449.534C113 430.467 114.067 391.933 115.4 364.067C118.067 308.467 117.667 301.134 111.667 291.934C107.667 285.8 106.2 273.8 104.2 233.667C102.467 198.067 102.467 168.467 104.333 148.2C105.667 132.867 105.8 132.067 109.933 127.8C114.333 123.267 135.8 107.534 137.667 107.534C138.333 107.534 140.467 110.067 142.733 113.267Z" fill="#054C5A"/>
</svg>
