<svg width="403" height="46" viewBox="0 0 403 46" fill="none" xmlns="http://www.w3.org/2000/svg">
<path d="M49.7604 29.2327C49 31.8682 48.0573 34.9202 44.3646 38.3942C41.0208 41.5088 35.5 45.0452 24.9375 45.0452C10.2083 45.0452 9.53674e-07 37.1963 9.53674e-07 22.4046C9.53674e-07 6.47752 12.4375 0.0087738 25.526 0.0087738C30.2813 0.0087738 42.7656 1.1494 48.2656 11.2848L37.9115 14.6234C36.7917 12.8265 33.4948 8.16502 25.4531 8.16502C16.0625 8.16502 10.7969 14.4411 10.7969 22.5296C10.7969 31.7484 17.9583 36.6598 25.8229 36.6598C34.7969 36.6598 37.5 31.8682 38.8438 29.2952L49.7604 29.2327Z" fill="#003F54"/>
<path d="M54.2969 1.33169H64.6823V17.6181H89.2188V1.33169H99.6094V43.6025H89.2188V25.4619H64.6823V43.6025H54.2969V1.33169Z" fill="#003F54"/>
<path d="M131.13 14.3213C130.833 13.7848 130.604 13.1859 130.427 12.6442C130.25 12.1077 130.13 11.5713 130.073 10.9723C129.896 11.5088 129.781 11.9879 129.661 12.4671C129.427 13.0036 129.255 13.5452 129.016 14.0817L123.234 26.8838H136.609L131.13 14.3213ZM124.557 1.33169H135.766L155.776 43.6025H144.156L140.052 34.3734H119.87L115.87 43.6025H104.547L124.557 1.33169Z" fill="#003F54"/>
<path d="M161.115 1.33169H171.505V35.8213H192.427V43.6025H161.115V1.33169Z" fill="#003F54"/>
<path d="M198.677 1.33169H213.641L224.443 27.1963C225.557 29.9515 225.969 31.0869 226.552 33.4879C226.964 31.6911 227.313 30.6129 228.49 27.6754L239.286 1.33169H254.13V43.6025H244.333V14.0244C244.333 12.7692 244.51 11.6911 244.745 10.0713C244.333 11.3317 244.161 11.8109 243.573 13.3056L231.193 43.6025H221.74L209.359 13.9046C208.714 12.2848 208.599 11.8109 208.13 10.0713C208.302 11.8681 208.359 12.2275 208.479 13.8473V43.6025H198.677V1.33169Z" fill="#003F54"/>
<path d="M263.74 1.33169H302.349V8.93065H274.125V18.4567H298.984V25.9411H274.125V36.0609H303.526V43.6025H263.74V1.33169Z" fill="#003F54"/>
<path d="M368.083 30.7171C370.51 35.764 376.469 37.2119 382.099 37.1129C384.625 37.0661 392.536 36.5088 392.448 31.3577C392.396 28.3057 389.51 27.639 387.276 27.2588C385.563 26.9306 377.036 25.764 375.094 25.4411C371.266 24.79 361.615 23.1077 361.448 13.5244C361.412 11.4306 361.964 9.26398 362.99 7.50877C366.349 1.75877 373.958 0.128564 380.531 0.00877373C386.568 -0.0953996 391.219 0.717107 395.547 3.03482C399.813 5.29523 401.682 8.37856 402.526 9.73794L392.708 12.4306C392.349 11.7744 391.505 10.2379 389.016 9.01919C386.234 7.69107 382.651 7.51398 380.661 7.55565C376.083 7.63377 371.401 8.61815 371.469 12.6286C371.521 15.3838 373.938 16.0609 377.057 16.7223C378.76 17.0504 387.234 18.3369 389.177 18.7223C394.005 19.5296 402.193 21.1807 402.354 30.4619C402.589 44.0557 387.661 44.8265 381.615 44.9098C374.802 45.0036 364.203 44.0192 358.677 33.3994L368.083 30.7171Z" fill="#003F54"/>
<path d="M321.708 19.139H338.255C340.49 19.139 344.479 18.8421 344.479 14.1077C344.479 13.2692 344.359 11.8317 343.656 10.8161C342.896 9.79523 341.896 8.77961 337.786 8.77961H321.708V19.139ZM311.323 1.35252H339.839C344.536 1.35252 348.818 1.7744 352.281 5.84732C354.396 8.35773 354.979 11.5348 354.979 13.9879C354.979 17.2223 353.927 21.0556 350.99 23.3317C348.766 25.0661 345.885 25.665 344.24 25.9619L356.797 43.6286H344.875L333.505 26.6234H321.708V43.6286H311.323V1.35252Z" fill="#003F54"/>
</svg>
