<svg width="986" height="986" viewBox="0 0 986 986" fill="none" xmlns="http://www.w3.org/2000/svg">
<g clip-path="url(#clip0_63_1004)">
<path d="M543.831 57.0977L536.928 189.993" stroke="#00C3D0" stroke-width="25.636" stroke-linecap="round" stroke-linejoin="round"/>
<path d="M471.939 200.623C489.544 229.964 536.213 274.216 582.053 216.501" stroke="#00C3D0" stroke-width="25.636" stroke-linecap="round" stroke-linejoin="round"/>
<path d="M620.601 214.916C637.17 238.273 675.071 287.059 694.125 295.344L736.237 214.916L828.056 265.658" stroke="#003F54" stroke-width="25.636" stroke-linecap="round" stroke-linejoin="round"/>
<path d="M620.08 322.783L724.325 378.013L682.903 452.572" stroke="#00C3D0" stroke-width="25.636" stroke-linecap="round" stroke-linejoin="round"/>
<path d="M468.887 459.391C507.893 459.046 583.833 476.443 575.549 548.793C567.264 621.144 534.587 630.947 519.284 626.805" stroke="#003F54" stroke-width="25.636" stroke-linecap="square" stroke-linejoin="round"/>
<path d="M575.705 649.337L636.895 652.871L616.866 749.232" stroke="#00C3D0" stroke-width="25.636" stroke-linecap="round" stroke-linejoin="round"/>
<path d="M451.687 676.275C472.101 697.731 524.92 732.416 572.888 699.51" stroke="#00C3D0" stroke-width="25.636" stroke-linecap="round" stroke-linejoin="round"/>
<path d="M-58.1767 729.387C-52.0366 696.777 -12.5628 618.812 127.396 575.331" stroke="#3AB8FF" stroke-width="25.636" stroke-linecap="round" stroke-linejoin="round"/>
<path d="M927.823 729.387C933.963 696.777 973.437 618.812 1113.4 575.331" stroke="#3AB8FF" stroke-width="25.636" stroke-linecap="round" stroke-linejoin="round"/>
<path d="M811.948 347.961L751.769 295.919" stroke="#003F54" stroke-width="25.636" stroke-linecap="round" stroke-linejoin="round"/>
<path d="M212.73 494.421L329.747 436.085V548.615L449.181 494.421L394.987 634.565" stroke="#00C3D0" stroke-width="25.636" stroke-linecap="round" stroke-linejoin="round"/>
<path d="M390.573 884.241C413.01 874.346 467.342 860.492 505.174 884.241" stroke="#00C3D0" stroke-width="25.636" stroke-linecap="round" stroke-linejoin="round"/>
<path d="M375.536 773.97C397.398 745.665 452.098 706.038 496.005 773.97" stroke="#003F54" stroke-width="25.636" stroke-linecap="round" stroke-linejoin="round"/>
<path d="M188.27 939.761C146.121 943.125 64.9892 926.536 77.6572 833.269" stroke="#003F54" stroke-width="25.636" stroke-linecap="round" stroke-linejoin="round"/>
<path d="M653.782 781.208C659.245 814.665 695.854 877.119 798.584 859.282" stroke="#00C3D0" stroke-width="25.636" stroke-linecap="round" stroke-linejoin="round"/>
<path d="M-69.4148 216.374C-28.3785 199.668 71.0344 183.424 140.396 252.099" stroke="#00C3D0" stroke-width="25.636" stroke-linecap="round" stroke-linejoin="round"/>
<path d="M916.585 216.374C957.622 199.668 1057.03 183.424 1126.4 252.099" stroke="#00C3D0" stroke-width="25.636" stroke-linecap="round" stroke-linejoin="round"/>
<path d="M576.229 802.45L547.723 859.579" stroke="#00C3D0" stroke-width="25.636" stroke-linecap="round" stroke-linejoin="round"/>
<path d="M829.226 174.226L868.37 202.228V257.592L934.038 266.614" stroke="#00C3D0" stroke-width="25.636" stroke-linecap="round" stroke-linejoin="round"/>
<path d="M431.199 924.623L377.654 1002.99L338.225 936.684L281.702 1013.52L266.862 910.565" stroke="#00C3D0" stroke-width="25.636" stroke-linecap="round" stroke-linejoin="round"/>
<path d="M431.199 -61.3765L377.654 16.9915L338.225 -49.3159L281.702 27.5198L266.862 -75.4341" stroke="#00C3D0" stroke-width="25.636" stroke-linecap="round" stroke-linejoin="round"/>
<path d="M833.558 30.9605C815.215 55.4863 782.38 110.778 797.795 135.736" stroke="#003F54" stroke-width="25.636" stroke-linecap="round" stroke-linejoin="round"/>
<path fill-rule="evenodd" clip-rule="evenodd" d="M841.533 413.507C843.264 406.642 839.102 399.675 832.238 397.944C825.373 396.213 818.406 400.375 816.675 407.239L805.335 452.21L751.899 438.83C745.032 437.11 738.071 441.283 736.352 448.151C734.632 455.018 738.805 461.979 745.673 463.698L799.067 477.068L787.656 522.324C785.925 529.188 790.087 536.156 796.951 537.887C803.815 539.618 810.783 535.456 812.514 528.592L823.936 483.294L875.587 496.227C882.454 497.947 889.415 493.774 891.134 486.907C892.854 480.039 888.681 473.078 881.814 471.359L830.204 458.436L841.533 413.507Z" fill="#3AB8FF"/>
<path fill-rule="evenodd" clip-rule="evenodd" d="M67.604 -21.9107C69.3348 -28.775 65.1733 -35.7428 58.309 -37.4736C51.4446 -39.2045 44.4769 -35.043 42.746 -28.1786L31.4066 16.7922L-22.0295 3.41233C-28.8966 1.69286 -35.8575 5.86591 -37.577 12.7331C-39.2964 19.6003 -35.1234 26.5612 -28.2562 28.2806L25.1386 41.6501L13.7272 86.9065C11.9964 93.7709 16.1579 100.739 23.0222 102.469C29.8865 104.2 36.8543 100.039 38.5852 93.1745L50.007 47.8769L101.658 60.8098C108.525 62.5293 115.486 58.3562 117.206 51.489C118.925 44.6218 114.752 37.661 107.885 35.9415L56.2749 23.0189L67.604 -21.9107Z" fill="#00C3D0"/>
<path fill-rule="evenodd" clip-rule="evenodd" d="M1053.6 -21.9107C1055.33 -28.775 1051.17 -35.7428 1044.31 -37.4736C1037.44 -39.2045 1030.48 -35.043 1028.75 -28.1786L1017.41 16.7922L963.971 3.41233C957.103 1.69286 950.142 5.86591 948.423 12.7331C946.704 19.6003 950.877 26.5612 957.744 28.2806L1011.14 41.6501L999.727 86.9065C997.996 93.7709 1002.16 100.739 1009.02 102.469C1015.89 104.2 1022.85 100.039 1024.59 93.1745L1036.01 47.8769L1087.66 60.8098C1094.53 62.5293 1101.49 58.3562 1103.21 51.489C1104.93 44.6218 1100.75 37.661 1093.88 35.9415L1042.27 23.0189L1053.6 -21.9107Z" fill="#00C3D0"/>
<path fill-rule="evenodd" clip-rule="evenodd" d="M67.6035 964.089C69.3343 957.224 65.1728 950.257 58.3085 948.526C51.4441 946.795 44.4764 950.957 42.7455 957.821L31.4061 1002.79L-22.0299 989.412C-28.8971 987.692 -35.858 991.865 -37.5775 998.733C-39.2969 1005.6 -35.1239 1012.56 -28.2567 1014.28L25.1382 1027.65L13.7267 1072.91C11.9959 1079.77 16.1574 1086.74 23.0217 1088.47C29.8861 1090.2 36.8538 1086.04 38.5847 1079.17L50.0065 1033.88L101.658 1046.81C108.525 1048.53 115.486 1044.36 117.205 1037.49C118.925 1030.62 114.752 1023.66 107.884 1021.94L56.2744 1009.02L67.6035 964.089Z" fill="#00C3D0"/>
<path fill-rule="evenodd" clip-rule="evenodd" d="M181.661 461.253C186.237 455.852 185.567 447.763 180.166 443.188C174.764 438.612 166.676 439.281 162.1 444.683L137.313 473.944L127.959 464.239C123.046 459.142 114.932 458.992 109.835 463.905C104.738 468.818 104.588 476.932 109.501 482.029L120.658 493.605L99.9289 518.076C95.3531 523.477 96.0227 531.565 101.424 536.141C106.826 540.717 114.914 540.047 119.49 534.646L138.54 512.157L152.823 526.976C157.736 532.073 165.851 532.222 170.948 527.309C176.045 522.396 176.194 514.282 171.281 509.185L155.195 492.496L181.661 461.253Z" fill="#00C3D0"/>
<path fill-rule="evenodd" clip-rule="evenodd" d="M212.461 91.4288C219.392 89.9866 223.841 83.199 222.399 76.2683C220.957 69.3376 214.169 64.8883 207.238 66.3305L87.8049 91.1837C80.8742 92.6259 76.4249 99.4135 77.8671 106.344C79.3093 113.275 86.0969 117.724 93.0277 116.282L212.461 91.4288ZM220.992 139.631C227.88 137.998 232.139 131.09 230.506 124.202C228.872 117.314 221.964 113.054 215.076 114.687L94.262 143.337C87.3739 144.971 83.1141 151.879 84.7476 158.767C86.3811 165.655 93.2892 169.915 100.177 168.282L220.992 139.631Z" fill="#3AB8FF"/>
<path fill-rule="evenodd" clip-rule="evenodd" d="M368.034 338.65C366.971 331.651 360.435 326.839 353.436 327.903C346.437 328.966 341.626 335.502 342.689 342.501L357.532 440.188C358.596 447.186 365.131 451.998 372.13 450.935C379.129 449.871 383.941 443.335 382.877 436.337L368.034 338.65ZM414.434 339.832C413.818 332.78 407.602 327.562 400.55 328.178C393.497 328.794 388.28 335.01 388.895 342.063L395.799 421.11C396.415 428.162 402.631 433.38 409.684 432.764C416.736 432.148 421.954 425.931 421.338 418.879L414.434 339.832Z" fill="#00C3D0"/>
<path fill-rule="evenodd" clip-rule="evenodd" d="M283.753 90.841C280.477 89.6098 276.841 89.7714 273.687 91.2882C270.534 92.8051 268.137 95.5453 267.054 98.873L233.917 200.702C231.726 207.434 235.407 214.667 242.139 216.857C248.871 219.048 256.104 215.367 258.294 208.635L287.283 119.555L374.837 152.463C381.463 154.954 388.854 151.601 391.345 144.974C393.836 138.348 390.483 130.957 383.856 128.466L283.753 90.841ZM318.647 165.371C317.474 158.39 310.863 153.682 303.882 154.855C296.901 156.028 292.193 162.639 293.366 169.62C298.484 200.073 326.77 266.171 400.027 295.057C406.613 297.653 414.057 294.42 416.654 287.834C419.25 281.248 416.017 273.804 409.431 271.208C346.824 246.521 322.734 189.687 318.647 165.371Z" fill="#003F54"/>
<path fill-rule="evenodd" clip-rule="evenodd" d="M327.3 737.103C331.585 731.468 330.491 723.426 324.856 719.141C319.221 714.856 311.179 715.95 306.894 721.585L249.312 797.31C245.027 802.945 246.121 810.987 251.756 815.272C257.391 819.557 265.433 818.463 269.718 812.828L327.3 737.103ZM225.524 759.632C224.771 752.593 218.455 747.497 211.416 748.249C204.377 749.002 199.281 755.318 200.033 762.357L210.396 859.281C210.77 862.78 212.566 865.972 215.364 868.107C218.161 870.243 221.713 871.134 225.187 870.572L319.143 855.38C326.132 854.25 330.881 847.669 329.751 840.681C328.621 833.692 322.04 828.943 315.051 830.073L234.449 843.106L225.524 759.632Z" fill="#3AB8FF"/>
<mask id="path-33-inside-1_63_1004" fill="white">
<rect x="461.443" y="278.341" width="131.17" height="131.17" rx="7.44427"/>
</mask>
<rect x="461.443" y="278.341" width="131.17" height="131.17" rx="7.44427" stroke="#3AB8FF" stroke-width="51.272" stroke-linejoin="round" mask="url(#path-33-inside-1_63_1004)"/>
<mask id="path-34-inside-2_63_1004" fill="white">
<rect x="630.843" y="115.05" width="88.3669" height="88.3669" rx="7.44427" transform="rotate(-14.0017 630.843 115.05)"/>
</mask>
<rect x="630.843" y="115.05" width="88.3669" height="88.3669" rx="7.44427" transform="rotate(-14.0017 630.843 115.05)" stroke="#00C3D0" stroke-width="51.272" stroke-linejoin="round" mask="url(#path-34-inside-2_63_1004)"/>
<mask id="path-35-inside-3_63_1004" fill="white">
<rect x="162.887" y="628.291" width="128.721" height="128.721" rx="7.44427" transform="rotate(-45 162.887 628.291)"/>
</mask>
<rect x="162.887" y="628.291" width="128.721" height="128.721" rx="7.44427" transform="rotate(-45 162.887 628.291)" stroke="#003F54" stroke-width="51.272" stroke-linejoin="round" mask="url(#path-35-inside-3_63_1004)"/>
<mask id="path-36-inside-4_63_1004" fill="white">
<rect x="676.806" y="679.696" width="145.599" height="159.134" rx="7.44427" transform="rotate(-51.7263 676.806 679.696)"/>
</mask>
<rect x="676.806" y="679.696" width="145.599" height="159.134" rx="7.44427" transform="rotate(-51.7263 676.806 679.696)" stroke="#003F54" stroke-width="51.272" stroke-linejoin="round" mask="url(#path-36-inside-4_63_1004)"/>
<circle cx="675.375" cy="543.941" r="44.8276" stroke="#00C3D0" stroke-width="25.636" stroke-linejoin="round"/>
<circle cx="246.142" cy="322.771" r="54.8379" stroke="#003F54" stroke-width="25.636" stroke-linejoin="round"/>
<circle cx="447.018" cy="78.8454" r="48.9698" stroke="#00C3D0" stroke-width="25.636" stroke-linejoin="round"/>
<circle cx="928.867" cy="352.038" r="29.9847" stroke="#00C3D0" stroke-width="25.636" stroke-linejoin="round"/>
<circle cx="989.88" cy="489.653" r="65.5386" stroke="#003F54" stroke-width="25.636" stroke-linejoin="round"/>
<circle cx="3.88006" cy="489.653" r="65.5386" stroke="#003F54" stroke-width="25.636" stroke-linejoin="round"/>
<circle cx="670.496" cy="970.156" r="76.5845" transform="rotate(22.673 670.496 970.156)" stroke="#003F54" stroke-width="25.636" stroke-linejoin="round"/>
<circle cx="670.496" cy="-15.8438" r="76.5845" transform="rotate(22.673 670.496 -15.8438)" stroke="#003F54" stroke-width="25.636" stroke-linejoin="round"/>
<path d="M59.2697 743.916L131.54 694.186L138.472 781.639L59.2697 743.916Z" stroke="#00C3D0" stroke-width="25.636" stroke-linejoin="round"/>
<path d="M837.544 922.808L888.949 804.357L964.677 908.944L837.544 922.808Z" stroke="#00C3D0" stroke-width="25.636" stroke-linejoin="round"/>
<path d="M972.913 94.0252L900.642 143.755L893.71 56.3019L972.913 94.0252Z" stroke="#3AB8FF" stroke-width="25.636" stroke-linejoin="round"/>
<path d="M-13.0866 94.0252L-85.3573 143.755L-92.2893 56.3019L-13.0866 94.0252Z" stroke="#00C3D0" stroke-width="25.636" stroke-linejoin="round"/>
<path d="M988.949 770.754L1075.74 757.992L1043.4 839.539L988.949 770.754Z" stroke="#00C3D0" stroke-width="25.636" stroke-linejoin="round"/>
<path d="M53.2509 345.181L129.661 320.007L113.257 398.766L53.2509 345.181Z" stroke="#003F54" stroke-width="25.636" stroke-linejoin="round"/>
<circle cx="404.726" cy="200.78" r="14.1525" fill="#003F54"/>
<circle cx="630.808" cy="414.877" r="14.1525" fill="#003F54"/>
<circle cx="68.0866" cy="281.161" r="14.1525" fill="#00C3D0"/>
<circle cx="177.533" cy="4.29265" r="14.1525" fill="#003F54"/>
<circle cx="177.533" cy="990.293" r="14.1525" fill="#003F54"/>
<circle cx="150.363" cy="873.135" r="14.1525" transform="rotate(127.459 150.363 873.135)" fill="#003F54"/>
<circle cx="435.024" cy="807.116" r="14.1525" fill="#003F54"/>
<circle cx="510.111" cy="952.726" r="14.1525" fill="#003F54"/>
<circle cx="738.468" cy="790.134" r="14.1525" fill="#00C3D0"/>
<circle cx="382.095" cy="696.42" r="14.1525" fill="#00C3D0"/>
<circle cx="670.434" cy="970.079" r="14.1525" fill="#003F54"/>
<circle cx="73.6628" cy="661.245" r="14.1525" fill="#00C3D0"/>
<circle cx="494.578" cy="551.256" r="14.1525" fill="#003F54"/>
<circle cx="784.317" cy="671.815" r="14.1525" fill="#00C3D0"/>
<circle cx="881.635" cy="582.187" r="14.1525" fill="#00C3D0"/>
</g>
<defs>
<clipPath id="clip0_63_1004">
<rect width="986" height="986" rx="39.44" fill="white"/>
</clipPath>
</defs>
</svg>
