<svg width="1343" height="675" viewBox="0 0 1343 675" fill="none" xmlns="http://www.w3.org/2000/svg">
<path d="M223.401 566.202L270.433 593.356V647.664L223.401 674.818L176.369 647.664V593.356L223.401 566.202Z" fill="#003F54"/>
<path d="M336.276 378.075L383.308 405.229V459.536L336.276 486.69L289.244 459.536V405.229L336.276 378.075Z" fill="#003F54" fill-opacity="0.51"/>
<path d="M218.699 378.075L265.731 405.229V459.536L218.699 486.69L171.667 459.536V405.229L218.699 378.075Z" fill="#003F54"/>
<path d="M101.119 378.075L148.151 405.229V459.536L101.119 486.69L54.0876 459.536V405.229L101.119 378.075Z" fill="#003F54"/>
<path d="M336.276 189.947L383.308 217.101V271.409L336.276 298.563L289.244 271.409V217.101L336.276 189.947Z" fill="#003F54"/>
<path d="M336.276 566.202L383.308 593.356V647.664L336.276 674.818L289.244 647.664V593.356L336.276 566.202Z" fill="#003F54" fill-opacity="0.2"/>
<path d="M1013.54 566.202L1060.57 593.356V647.664L1013.54 674.818L966.504 647.664V593.356L1013.54 566.202Z" fill="#003F54"/>
<path d="M449.153 378.075L496.185 405.229V459.536L449.153 486.69L402.122 459.536V405.229L449.153 378.075Z" fill="#00C3D0"/>
<path d="M449.153 189.947L496.185 217.101V271.409L449.153 298.563L402.122 271.409V217.101L449.153 189.947Z" fill="#003F54" fill-opacity="0.51"/>
<path d="M1126.41 378.075L1173.45 405.229V459.536L1126.41 486.69L1079.38 459.536V405.229L1126.41 378.075Z" fill="#003F54"/>
<path d="M1126.41 189.947L1173.45 217.101V271.409L1126.41 298.563L1079.38 271.409V217.101L1126.41 189.947Z" fill="#003F54"/>
<path d="M562.031 189.947L609.063 217.101V271.409L562.031 298.563L514.999 271.409V217.101L562.031 189.947Z" fill="#003F54"/>
<path d="M562.031 566.202L609.063 593.356V647.664L562.031 674.818L514.999 647.664V593.356L562.031 566.202Z" fill="#003F54"/>
<path d="M1239.29 378.075L1286.32 405.229V459.536L1239.29 486.69L1192.26 459.536V405.229L1239.29 378.075Z" fill="#003F54"/>
<path d="M1239.29 189.947L1286.32 217.101V271.409L1239.29 298.563L1192.26 271.409V217.101L1239.29 189.947Z" fill="#003F54"/>
<path d="M674.906 189.947L721.938 217.101V271.409L674.906 298.563L627.874 271.409V217.101L674.906 189.947Z" fill="#003F54" fill-opacity="0.51"/>
<path d="M674.906 566.202L721.938 593.356V647.664L674.906 674.818L627.874 647.664V593.356L674.906 566.202Z" fill="#003F54" fill-opacity="0.51"/>
<path d="M787.783 378.075L834.815 405.229V459.536L787.783 486.69L740.751 459.536V405.229L787.783 378.075Z" fill="#003F54"/>
<path d="M787.783 189.947L834.815 217.101V271.409L787.783 298.563L740.751 271.409V217.101L787.783 189.947Z" fill="#003F54" fill-opacity="0.51"/>
<path d="M787.783 566.202L834.815 593.356V647.664L787.783 674.818L740.751 647.664V593.356L787.783 566.202Z" fill="#003F54" fill-opacity="0.2"/>
<path d="M900.658 378.075L947.69 405.229V459.536L900.658 486.69L853.626 459.536V405.229L900.658 378.075Z" fill="#003F54"/>
<path d="M279.84 95.8835L326.872 123.037V177.345L279.84 204.499L232.808 177.345V123.037L279.84 95.8835Z" fill="#003F54" fill-opacity="0.2"/>
<path d="M279.837 472.138L326.869 499.292V553.6L279.837 580.754L232.805 553.6V499.292L279.837 472.138Z" fill="#003F54"/>
<path d="M957.097 472.138L1004.13 499.292V553.6L957.097 580.754L910.065 553.6V499.292L957.097 472.138Z" fill="#003F54"/>
<path d="M957.097 284.011L1004.13 311.165V365.472L957.097 392.626L910.065 365.472V311.165L957.097 284.011Z" fill="#00C3D0"/>
<path d="M392.715 284.011L439.747 311.165V365.472L392.715 392.626L345.683 365.472V311.165L392.715 284.011Z" fill="#003F54"/>
<path d="M277.489 284.011L324.521 311.165V365.472L277.489 392.626L230.457 365.472V311.165L277.489 284.011Z" fill="#003F54"/>
<path d="M47.0318 284.011L94.0637 311.165V365.472L47.0318 392.626L0 365.472V311.165L47.0318 284.011Z" fill="#003F54" fill-opacity="0.2"/>
<path d="M392.715 95.8835L439.747 123.037V177.345L392.715 204.499L345.683 177.345V123.037L392.715 95.8835Z" fill="#003F54" fill-opacity="0.2"/>
<path d="M336.279 0L383.311 27.1538V81.4615L336.279 108.615L289.247 81.4615V27.1538L336.279 0Z" fill="#00C3D0"/>
<path d="M392.715 472.138L439.747 499.292V553.6L392.715 580.754L345.683 553.6V499.292L392.715 472.138Z" fill="#003F54"/>
<path d="M1069.97 284.011L1117.01 311.165V365.472L1069.97 392.626L1022.94 365.472V311.165L1069.97 284.011Z" fill="#003F54" fill-opacity="0.51"/>
<path d="M1069.97 95.8835L1117.01 123.037V177.345L1069.97 204.499L1022.94 177.345V123.037L1069.97 95.8835Z" fill="#003F54"/>
<path d="M505.592 284.011L552.624 311.165V365.472L505.592 392.626L458.561 365.472V311.165L505.592 284.011Z" fill="#003F54"/>
<path d="M505.592 95.8835L552.624 123.037V177.345L505.592 204.499L458.561 177.345V123.037L505.592 95.8835Z" fill="#003F54"/>
<path d="M505.592 472.138L552.624 499.292V553.6L505.592 580.754L458.561 553.6V499.292L505.592 472.138Z" fill="#003F54"/>
<path d="M1182.85 95.8835L1229.88 123.037V177.345L1182.85 204.499L1135.82 177.345V123.037L1182.85 95.8835Z" fill="#003F54" fill-opacity="0.2"/>
<path d="M618.467 284.011L665.499 311.165V365.472L618.467 392.626L571.435 365.472V311.165L618.467 284.011Z" fill="#003F54"/>
<path d="M1295.73 284.011L1342.76 311.165V365.472L1295.73 392.626L1248.69 365.472V311.165L1295.73 284.011Z" fill="#003F54" fill-opacity="0.51"/>
<path d="M1295.73 95.8835L1342.76 123.037V177.345L1295.73 204.499L1248.69 177.345V123.037L1295.73 95.8835Z" fill="#003F54" fill-opacity="0.2"/>
<path d="M731.345 284.011L778.376 311.165V365.472L731.345 392.626L684.313 365.472V311.165L731.345 284.011Z" fill="#003F54"/>
<path d="M731.345 472.138L778.376 499.292V553.6L731.345 580.754L684.313 553.6V499.292L731.345 472.138Z" fill="#003F54" fill-opacity="0.2"/>
<path d="M844.222 284.011L891.254 311.165V365.472L844.222 392.626L797.19 365.472V311.165L844.222 284.011Z" fill="#003F54"/>
<path d="M844.222 95.8835L891.254 123.037V177.345L844.222 204.499L797.19 177.345V123.037L844.222 95.8835Z" fill="#003F54"/>
<path d="M844.222 472.138L891.254 499.292V553.6L844.222 580.754L797.19 553.6V499.292L844.222 472.138Z" fill="#003F54"/>
</svg>
