<svg width="1366" height="1366" viewBox="0 0 1366 1366" fill="none" xmlns="http://www.w3.org/2000/svg">
<path d="M116.267 1.46664C62.9333 8.39997 19.0666 47.2 4.26659 100.8L0.666591 114L0.266591 676C-7.52458e-05 1075.2 0.266591 1241.2 1.33326 1249.2C8.93326 1307.87 56.5333 1355.73 115.2 1363.87C122.4 1364.93 290.667 1365.33 683.867 1365.33C1175.73 1365.33 1243.73 1365.07 1253.87 1363.33C1310 1353.47 1353.47 1310 1363.33 1253.87C1365.07 1243.73 1365.33 1175.73 1365.33 683.867C1365.33 290.667 1364.93 122.4 1363.87 115.2C1355.73 56.9333 1308.4 9.59997 1250.13 1.46664C1237.73 -0.266697 129.6 -0.266697 116.267 1.46664ZM694.667 495.333V542.667H627.333H560V760.667V978.667H494H428V760.667V542.667H360.667H293.333V495.333V448H494H694.667V495.333ZM1073.33 494.667V541.333H966H858.667V596.667V652H962.667H1066.67V698.667V745.333H962.667H858.667V814V882.667H966H1073.33V930V977.333H900.667H728V712.667V448H900.667H1073.33V494.667Z" fill="#07515F"/>
</svg>
